<svg xmlns="http://www.w3.org/2000/svg" viewBox="0 0 211 144">
  <path
    d="M65.9 10.6c-2.18-4.86-9.57-5.08-12.1.8L43.5 32.9c-2.86 4.78 3.84 7.81 5.8 3.5.21-.64 2.2-4.51 2.6-5.5H60c4.23-.07 4.23-6.73 0-6.8h-4.9l4.5-9.3v-.1c.2-.4.3-.4.2-.4.4 0 .26.17.5.5l10.3 21.6a4.24 4.24 0 0 0 2.3 2 3.26 3.26 0 0 0 2.8-.6 3.38 3.38 0 0 0 .9-4.6ZM98.2 19.4h-8.7c-4.62.2-4.73-6.21 0-6h14.1a3.07 3.07 0 0 0 3-3.3 3.06 3.06 0 0 0-3-3.2H89.4a9.31 9.31 0 0 0-9.6 9.4 9.25 9.25 0 0 0 9.6 9.4H98c4.53-.11 4.8 6.42 0 6.2H84a3.06 3.06 0 0 0-3 3.2 3.12 3.12 0 0 0 3 3.3h14.1c12.73-.13 12.47-18.66.1-19ZM136.4 7h-22.9a3.27 3.27 0 0 0-3.4 3.2 3.33 3.33 0 0 0 3.4 3.2h8.1v21.9a3.4 3.4 0 1 0 6.8 0v-22h8.1a3.27 3.27 0 0 0 3.4-3.2 3.41 3.41 0 0 0-3.5-3.1ZM146.8 13.4h20.4a3.2 3.2 0 1 0 0-6.4h-20.4a3.2 3.2 0 1 0 0 6.4ZM151.5 25.7h15.8a3.2 3.2 0 1 0 0-6.4c-2.12.13-17.84-.33-19.5.3a10.09 10.09 0 0 0-1.5.7 6.34 6.34 0 0 0-2.8 5.1v7.5a6.31 6.31 0 0 0 2.7 4.6 5.23 5.23 0 0 0 1.5.7c1.58.62 17.55.17 19.6.3a3.21 3.21 0 1 0 0-6.4h-15.8c-.7 0-1.6-.4-1.6-1.3v-4c-.1-.8.4-1.1 1.6-1.1ZM11.2 7a3.37 3.37 0 0 0-3.4 3.4v24.7a3.4 3.4 0 0 0 6.8 0V10.4A3.37 3.37 0 0 0 11.2 7ZM37.9 32.6l-11.4-9.8 11.3-9.7a3.44 3.44 0 0 0-1.6-6 3.24 3.24 0 0 0-2.8.8L17.3 21.7a1.48 1.48 0 0 0 0 2.2l16 13.8a3.33 3.33 0 0 0 5.6-2.4 2.9 2.9 0 0 0-1-2.7ZM200.4 7a3.4 3.4 0 0 0-3.4 3.2v19.1c-3-4.8-11.8-18.9-12-19.1-.8-1.2-2.7-3.2-5.2-3.2a5.84 5.84 0 0 0-5.6 6.1v22.1a3.2 3.2 0 1 0 6.4 0V15.4l12.2 19.3c1.3 1.8 2.9 3.9 5.5 3.9 3.3 0 5.6-2.4 5.6-6.1V10.4a3.52 3.52 0 0 0-3.5-3.4ZM198.4 137.8H13.1a5.59 5.59 0 0 1-5.6-5.6V50.4a5.59 5.59 0 0 1 5.6-5.6h185.2a5.59 5.59 0 0 1 5.6 5.6v81.8a5.44 5.44 0 0 1-5.5 5.6Z"
    fill="#2600ff" />
  <path
    d="M36 60.4a6.12 6.12 0 0 0-6.1 6.1v49.6c.29 8 11.85 8.14 12.2 0V66.5a6.19 6.19 0 0 0-6.1-6.1ZM80 60.4a5.54 5.54 0 0 0-3.8 1.5L65 72a.1.1 0 0 0-.1.1L46.2 89c-2.13 1.53-1.6 3.42.2 4.8.2.2.4.3.5.5l13.2 11.4 16 15.2a5.33 5.33 0 0 0 4.2 1.3 5.65 5.65 0 0 0 3.9-2.1 6.19 6.19 0 0 0-.7-8.4L61.3 91.1l10.9-9.8a1.38 1.38 0 0 0 .4-.3l11.2-10.1a6.19 6.19 0 0 0 .6-8.4 5.53 5.53 0 0 0-3.9-2 .9.9 0 0 0-.5-.1ZM108.6 60.4h-5.7a6.38 6.38 0 0 0-6.4 6.4 6.28 6.28 0 0 0 6 6.3v43a6.1 6.1 0 0 0 12.2 0V66.8a6.08 6.08 0 0 0-6.1-6.4ZM185.1 88.5l-14.3-24.9a5.73 5.73 0 0 0-5.1-3h-27.8a5.73 5.73 0 0 0-5.1 3l-14.3 24.9a4.94 4.94 0 0 0 0 5.1l14.3 24.9a5.84 5.84 0 0 0 5.1 3s7.24 0 14 0h13.8a5.73 5.73 0 0 0 5.1-3l14.3-24.9a4.92 4.92 0 0 0 0-5.1Zm-22.9 21h-20.8l-10.5-18.4 10.5-18.3h20.8l10.5 18.3Z"
    fill="#fff" />
</svg>
