<?xml version="1.0" encoding="utf-8"?>
<!-- Generator: Adobe Illustrator 25.4.1, SVG Export Plug-In . SVG Version: 6.00 Build 0)  -->
<svg version="1.1" id="Layer_1" xmlns="http://www.w3.org/2000/svg" xmlns:xlink="http://www.w3.org/1999/xlink" x="0px" y="0px"
	 viewBox="0 0 305.8 166.5" style="enable-background:new 0 0 305.8 166.5;" xml:space="preserve">
<style type="text/css">
	.st0{fill:#2600FF;}
	.st1{fill:#40F2FF;}
	.st2{fill:#FFFFFF;}
	.st3{fill:none;stroke:#C9C9C9;stroke-miterlimit:10;}
</style>
<g>
	<path class="st0" d="M-71.6,128.1h-202.6c-4.7,0-8.6-3.8-8.6-8.6V47c0-4.7,3.8-8.6,8.6-8.6h202.6c4.7,0,8.6,3.8,8.6,8.6v72.5
		C-63,124.3-66.9,128.1-71.6,128.1z"/>
	<g>
		<g>
			<path class="st1" d="M-256.7,60.8h10.9l11.7,20.2h0.2V60.8h8.7V97h-9.6l-12.9-22.5h-0.2V97h-8.7V60.8z"/>
			<path class="st1" d="M-221.9,89.6c0-5.8,4-7.8,10.1-8.7l5.1-0.7v-1.2c0-2.9-1.4-3.5-5.4-3.5c-2.8,0-5.4,0.4-7.4,0.8v-6
				c2.9-1.1,6.5-1.6,10.8-1.6c6.8,0,11.1,2.2,11.1,8.5V97h-7.6l-0.6-2.1h-0.3c-1.1,1.7-3.6,2.7-7,2.7
				C-218.4,97.5-221.9,94.9-221.9,89.6z M-206.8,90.6v-5.4l-3.2,0.3c-2.2,0.2-3.1,1-3.1,3.1c0,2.3,1.3,3,3,3
				C-208.7,91.7-207.4,91.2-206.8,90.6z"/>
			<path class="st1" d="M-196.3,69.2h9.5l5.4,17.4h0.2l5.4-17.4h8.6l-9.7,27.7h-9.6L-196.3,69.2z"/>
			<path class="st1" d="M-164.7,59.1h9.2v7h-9.2V59.1z M-164.7,69.2h9.1V97h-9.1V69.2z"/>
			<path class="st1" d="M-153.4,100.8c0-2.9,2.2-4.6,5.2-5.5V95c-1.7-0.7-3-2.1-3-4.2c0-2.3,1.4-4.2,3.4-5.7
				c-2.3-1.4-3.7-3.6-3.7-6.8v-0.4c0-6,4.6-9.1,12-9.1c1.8,0,3.5,0.2,5.1,0.5h9.3v5.3h-3.5c0.6,0.8,0.9,1.9,0.9,3.2V78
				c0,5.9-4.6,8.8-11.8,8.8c-1.5,0-2.8-0.1-4-0.4c-0.3,0.4-0.5,0.9-0.5,1.4c0,1.1,0.6,1.6,2.1,1.6h7.9c5.9,0,9.3,2.3,9.3,7.8
				c0,6-4.8,10.2-15.1,10.2C-149.3,107.4-153.4,104.7-153.4,100.8z M-133.8,98.8c0-1.7-0.7-2-3.5-2h-5.9c-1.1,0.4-1.9,1.1-1.9,2.4
				c0,1.6,1.1,2.6,5.2,2.6C-135.2,101.8-133.8,100.6-133.8,98.8z M-136.2,78.1v-0.5c0-2.9-1.2-3.6-3.3-3.6c-2.2,0-3.3,1-3.3,3.6V78
				c0,2.7,1.1,3.6,3.4,3.6C-137.4,81.7-136.2,80.7-136.2,78.1z"/>
		</g>
		<g>
			<g>
				<g>
					<polygon class="st1" points="-96.2,92.7 -96.2,99.8 -88.7,104.1 -88.7,88.4 					"/>
					<polygon class="st1" points="-110,100.6 -117.5,104.9 -104,112.7 -104,104 					"/>
					<polygon class="st1" points="-89,87.4 -95.5,83.7 -103,88 -96.5,91.7 					"/>
					<polygon class="st1" points="-104,88.1 -111.5,83.8 -117.8,87.4 -110.3,91.7 					"/>
					<polygon class="st1" points="-110.6,92.7 -118.1,88.4 -118.1,104.1 -110.6,99.8 					"/>
					<polygon class="st1" points="-103,104.1 -103,112.8 -89.3,104.9 -96.8,100.6 					"/>
				</g>
				<g>
					<polygon class="st2" points="-104,77.8 -109.7,74.5 -117.7,79.1 -111.5,82.7 -104,86.8 					"/>
					<polygon class="st2" points="-97.2,74.4 -103,77.8 -103,86.8 -95.5,82.7 -89.2,79 					"/>
					<polygon class="st2" points="-110.2,67 -118.2,62.4 -118.2,78.2 -110.2,73.6 					"/>
					<polygon class="st2" points="-96.8,73.5 -88.8,78.1 -88.8,62.5 -96.8,67.2 					"/>
					<polygon class="st2" points="-104,62.9 -104,53.7 -117.7,61.6 -109.7,66.2 					"/>
					<polygon class="st2" points="-97.3,66.2 -89.3,61.6 -103,53.7 -103,62.9 					"/>
				</g>
			</g>
		</g>
	</g>
</g>
<image style="overflow:visible;" width="4000" height="2250" xlink:href="../../../Downloads/Kasten_Color_Guide22_061022.png"  transform="matrix(7.358626e-02 0 0 7.358626e-02 -974.1869 83.7041)">
</image>
<g>
	<path class="st0" d="M-459.3,319.4h-78.7c-3,0-5.5-2.5-5.5-5.5v-78.7c0-3,2.5-5.5,5.5-5.5h78.7c3,0,5.5,2.5,5.5,5.5v78.7
		C-453.9,316.9-456.3,319.4-459.3,319.4z"/>
	<g>
		<g>
			<g>
				<g>
					<polygon class="st1" points="-491.5,284 -491.5,291 -484,295.3 -484,279.7 					"/>
					<polygon class="st1" points="-505.3,291.8 -512.8,296.1 -499.3,303.9 -499.3,295.3 					"/>
					<polygon class="st1" points="-484.3,278.7 -490.7,275 -498.2,279.3 -491.8,283 					"/>
					<polygon class="st1" points="-499.2,279.3 -506.7,275 -513.1,278.7 -505.6,283 					"/>
					<polygon class="st1" points="-505.9,284 -513.4,279.7 -513.4,295.3 -505.9,291 					"/>
					<polygon class="st1" points="-498.3,295.4 -498.3,304.1 -484.6,296.1 -492.1,291.8 					"/>
				</g>
				<g>
					<polygon class="st2" points="-499.2,269.1 -505,265.7 -513,270.4 -506.7,274 -499.2,278.1 					"/>
					<polygon class="st2" points="-492.4,265.7 -498.2,269 -498.2,278.1 -490.7,273.9 -484.4,270.3 					"/>
					<polygon class="st2" points="-505.4,258.3 -513.4,253.7 -513.4,269.5 -505.4,264.8 					"/>
					<polygon class="st2" points="-492.1,264.7 -484.1,269.3 -484.1,253.8 -492.1,258.4 					"/>
					<polygon class="st2" points="-499.3,254.2 -499.3,244.9 -512.9,252.8 -504.9,257.4 					"/>
					<polygon class="st2" points="-492.5,257.5 -484.5,252.9 -498.3,244.9 -498.3,254.2 					"/>
				</g>
			</g>
		</g>
	</g>
</g>
<g>
	<path class="st0" d="M-134.4,319.4h-78.7c-3,0-5.5-2.5-5.5-5.5v-78.7c0-3,2.5-5.5,5.5-5.5h78.7c3,0,5.5,2.5,5.5,5.5v78.7
		C-128.9,316.9-131.4,319.4-134.4,319.4z"/>
	<g>
		<g>
			<path class="st1" d="M-199.5,258.7h9.6l10.2,17.7h0.1v-17.7h7.6v31.6h-8.4l-11.3-19.7h-0.2v19.7h-7.6V258.7z"/>
		</g>
		<g>
			<g>
				<g>
					<polygon class="st1" points="-153.4,281.2 -153.4,286.1 -148.1,289.2 -148.1,278.1 					"/>
					<polygon class="st1" points="-163.1,286.7 -168.4,289.8 -158.9,295.2 -158.9,289.1 					"/>
					<polygon class="st1" points="-148.3,277.4 -152.8,274.8 -158.1,277.9 -153.6,280.5 					"/>
					<polygon class="st1" points="-158.8,277.9 -164.1,274.9 -168.6,277.4 -163.3,280.5 					"/>
					<polygon class="st1" points="-163.5,281.2 -168.8,278.1 -168.8,289.2 -163.5,286.1 					"/>
					<polygon class="st1" points="-158.2,289.2 -158.2,295.3 -148.5,289.8 -153.8,286.7 					"/>
				</g>
				<g>
					<polygon class="st2" points="-158.8,270.7 -162.9,268.3 -168.5,271.6 -164.1,274.1 -158.8,277 					"/>
					<polygon class="st2" points="-154,268.3 -158.1,270.6 -158.1,277 -152.8,274.1 -148.4,271.5 					"/>
					<polygon class="st2" points="-163.2,263.1 -168.8,259.8 -168.8,271 -163.2,267.7 					"/>
					<polygon class="st2" points="-153.8,267.6 -148.1,270.9 -148.1,259.9 -153.8,263.2 					"/>
					<polygon class="st2" points="-158.8,260.2 -158.8,253.7 -168.5,259.2 -162.8,262.5 					"/>
					<polygon class="st2" points="-154.1,262.5 -148.4,259.3 -158.1,253.7 -158.1,260.2 					"/>
				</g>
			</g>
		</g>
	</g>
</g>
<rect x="-628.2" y="50.2" class="st0" width="72" height="72"/>
<rect x="-534.7" y="50.2" class="st1" width="72" height="72"/>
<rect x="-441.3" y="50.2" class="st3" width="72" height="72"/>
<text transform="matrix(1 0 0 1 -532.5997 28.2823)" style="font-family:'MyriadPro-Regular'; font-size:12px;">Primary colors</text>
<text transform="matrix(1 0 0 1 -615.9963 143.3082)" style="font-family:'MyriadPro-Regular'; font-size:12px;">#2600FF</text>
<text transform="matrix(1 0 0 1 -523.477 143.4398)" style="font-family:'MyriadPro-Regular'; font-size:12px;">#40f2ff</text>
<text transform="matrix(1 0 0 1 -421.8127 143.3082)" style="font-family:'MyriadPro-Regular'; font-size:12px;">#ffffff</text>
<g>
	<path class="st0" d="M285.4,141.9H20.4c-6.2,0-11.2-5-11.2-11.2V35.8c0-6.2,5-11.2,11.2-11.2h265.1c6.2,0,11.2,5,11.2,11.2v94.9
		C296.7,136.9,291.6,141.9,285.4,141.9z"/>
	<g>
		<g>
			<path class="st1" d="M43.3,53.9h14.3l15.3,26.5h0.2V53.9h11.3v47.3H71.8L54.9,71.7h-0.3v29.5H43.3V53.9z"/>
			<path class="st1" d="M88.8,91.6c0-7.6,5.3-10.2,13.2-11.3l6.6-0.9v-1.6c0-3.8-1.8-4.6-7.1-4.6c-3.6,0-7.1,0.5-9.6,1.1v-7.9
				c3.8-1.4,8.5-2.1,14.2-2.1c8.9,0,14.5,2.9,14.5,11.1v25.8h-10l-0.8-2.8h-0.4c-1.5,2.2-4.7,3.5-9.2,3.5
				C93.4,101.9,88.8,98.5,88.8,91.6z M108.6,92.9v-7l-4.2,0.4c-2.9,0.2-4.1,1.4-4.1,4.1c0,3,1.7,4,4,4
				C106,94.3,107.7,93.7,108.6,92.9z"/>
			<path class="st1" d="M122.3,64.9h12.5l7,22.7h0.3l7-22.7h11.3l-12.8,36.3h-12.6L122.3,64.9z"/>
			<path class="st1" d="M163.6,51.7h12.1v9.1h-12.1V51.7z M163.7,64.9h11.9v36.3h-11.9V64.9z"/>
			<path class="st1" d="M178.4,106.2c0-3.8,2.9-6,6.8-7.2v-0.3c-2.3-1-4-2.7-4-5.5c0-3,1.8-5.5,4.5-7.5c-3.1-1.8-4.8-4.8-4.8-8.9
				v-0.5c0-7.8,6.1-11.9,15.8-11.9c2.4,0,4.6,0.2,6.6,0.6h12.2v6.9h-4.6c0.8,1.1,1.2,2.5,1.2,4.2v0.5c0,7.7-6.1,11.5-15.5,11.5
				c-1.9,0-3.6-0.1-5.3-0.5c-0.4,0.5-0.7,1.2-0.7,1.8c0,1.4,0.8,2,2.8,2h10.3c7.7,0,12.2,3,12.2,10.2c0,7.9-6.3,13.3-19.7,13.3
				C183.8,114.8,178.4,111.3,178.4,106.2z M204.1,103.6c0-2.2-1-2.7-4.6-2.7h-7.7c-1.4,0.5-2.5,1.4-2.5,3.1c0,2.1,1.4,3.4,6.8,3.4
				C202.3,107.5,204.1,105.9,204.1,103.6z M200.9,76.5v-0.7c0-3.8-1.6-4.8-4.4-4.8c-2.9,0-4.4,1.3-4.4,4.7v0.7
				c0,3.5,1.5,4.8,4.4,4.8C199.4,81.2,200.9,80,200.9,76.5z"/>
		</g>
		<g>
			<g>
				<g>
					<polygon class="st1" points="253.2,95.7 253.2,104.8 263,110.5 263,90 					"/>
					<polygon class="st1" points="235.2,105.9 225.4,111.6 243,121.8 243,110.4 					"/>
					<polygon class="st1" points="262.6,88.7 254.2,83.8 244.4,89.5 252.8,94.4 					"/>
					<polygon class="st1" points="243.1,89.6 233.3,83.9 225,88.7 234.8,94.4 					"/>
					<polygon class="st1" points="234.4,95.7 224.6,90 224.6,110.5 234.4,104.8 					"/>
					<polygon class="st1" points="244.3,110.6 244.3,121.9 262.3,111.6 252.4,105.9 					"/>
				</g>
				<g>
					<polygon class="st2" points="243.1,76.1 235.6,71.8 225.1,77.8 233.3,82.6 243.1,87.9 					"/>
					<polygon class="st2" points="252,71.7 244.4,76.1 244.4,87.9 254.2,82.5 262.4,77.7 					"/>
					<polygon class="st2" points="234.9,62 224.5,56 224.5,76.7 234.9,70.6 					"/>
					<polygon class="st2" points="252.4,70.5 262.9,76.5 262.9,56.1 252.4,62.2 					"/>
					<polygon class="st2" points="243,56.7 243,44.6 225.2,54.9 235.6,60.9 					"/>
					<polygon class="st2" points="251.9,61 262.4,55 244.4,44.6 244.4,56.7 					"/>
				</g>
			</g>
		</g>
	</g>
</g>
</svg>
